<?xml version="1.0" encoding="utf-8"?>
<svg version="1.1" id="Layer_1" xmlns="http://www.w3.org/2000/svg" xmlns:xlink="http://www.w3.org/1999/xlink" x="0px" y="0px"
	 viewBox="0 0 1024 1024" style="enable-background:new 0 0 1024 1024;" xml:space="preserve">
<style type="text/css">
	.st0{fill:#226DB4;}
</style>
<path class="st0" d="M921.7,223.6L556.9,13c-27.7-16-62.1-16-89.8,0L102.3,223.6c-27.7,16-44.9,45.8-44.9,77.8v421.2
	c0,32,17.2,61.8,44.9,77.8L467.1,1011c13.8,8,29.4,12,44.9,12c15.5,0,31.1-4,44.9-12l152.5-88c27.7-16,44.9-45.8,44.9-77.8V512
	c0,0,0,0,0-0.1c0-3.8-0.7-7.7-2.3-11.4c0,0,0,0,0,0c-0.2-0.6-0.5-1.2-0.8-1.7c0,0,0,0,0,0c-0.3-0.6-0.6-1.1-0.9-1.7
	c-2.9-5-7-8.8-11.7-11.4L527,363.5c-9.3-5.4-20.7-5.4-29.9,0L299.7,477.4L117.2,372.1v-70.7c0-10.7,5.7-20.6,15-25.9L497,64.9
	c9.2-5.3,20.7-5.3,29.9,0l364.8,210.6c9.2,5.3,15,15.3,15,25.9v421.2c0,10.7-5.7,20.6-15,25.9l-70.9,40.9
	c-14.3,8.3-19.2,26.6-11,40.9c8.3,14.3,26.6,19.2,40.9,11l70.9-40.9c27.7-16,44.9-45.8,44.9-77.8V301.4
	C966.6,269.4,949.4,239.6,921.7,223.6z M512,424l152.4,88L512,600l-152.5-88L512,424z M497,660.5c4.6,2.7,9.8,4,15,4s10.3-1.3,15-4
	l167.4-96.7v281.3c0,10.7-5.7,20.6-15,25.9l-152.5,88c-9.2,5.3-20.7,5.3-29.9,0L132.2,748.5c-9.2-5.3-15-15.3-15-25.9V441.3
	L497,660.5z"/>
</svg>
