<?xml version="1.0" encoding="utf-8"?>
<svg version="1.1" id="Layer_1" xmlns="http://www.w3.org/2000/svg" xmlns:xlink="http://www.w3.org/1999/xlink" x="0px" y="0px"
	 viewBox="0 0 1024 1024" style="enable-background:new 0 0 1024 1024;" xml:space="preserve">
<style type="text/css">
	.st0{fill:#226DB4;}
	.st1{fill:none;stroke:#226DB4;stroke-width:60;stroke-linecap:round;stroke-miterlimit:10;}
	.st2{fill:none;stroke:#E32527;stroke-width:60;stroke-linecap:round;stroke-miterlimit:10;}
	.st3{fill:none;stroke:#000000;stroke-linecap:round;stroke-miterlimit:10;}
	.st4{opacity:0.2;}
	.st5{stroke:#000000;stroke-width:0;stroke-linecap:round;stroke-linejoin:round;}
	.st6{stroke:#000000;stroke-width:1.8638;stroke-linecap:round;stroke-linejoin:round;}
	.st7{fill:none;stroke:#226DB4;stroke-width:58.5102;stroke-linecap:round;stroke-miterlimit:10;}
	.st8{fill:none;stroke:#000000;stroke-miterlimit:10;}
	.st9{fill:#FFFFFF;}
	.st10{fill:#4D4D4D;}
	.st11{fill:#E42527;}
	.st12{fill:none;stroke:#E42527;stroke-width:60;stroke-linecap:round;stroke-miterlimit:10;}
</style>
<g>
	<g>
		<path class="st11" d="M711.57,353.16c-7.01,0-14.05-2.44-19.74-7.42c-43.32-37.89-96.4-60.88-153.49-66.47
			c-16.49-1.61-28.55-16.29-26.93-32.78c1.62-16.49,16.29-28.55,32.78-26.93c69.63,6.82,134.34,34.83,187.14,81.02
			c12.47,10.91,13.74,29.86,2.83,42.33C728.23,349.69,719.92,353.16,711.57,353.16z"/>
	</g>
	<g>
		<path class="st11" d="M821.06,249.91c-7.33,0-14.67-2.67-20.45-8.06c-35.14-32.76-75.16-59.11-118.94-78.33
			c-45.1-19.8-93.01-31.46-142.39-34.68c-16.53-1.08-29.06-15.35-27.99-31.89c1.08-16.53,15.35-29.06,31.89-27.99
			c56.38,3.67,111.08,17,162.6,39.62c49.98,21.94,95.66,52.01,135.74,89.38c12.12,11.3,12.79,30.28,1.49,42.4
			C837.1,246.7,829.09,249.91,821.06,249.91z"/>
	</g>
	<g>
		<path class="st0" d="M1022.06,675.21c-6.21-35.86-31.39-66.65-51.42-86.15c-17.42-16.97-38.6-32.68-56.68-42.31
			c-0.6-41.58-7.51-82.46-20.57-121.62c-5.25-15.72-22.23-24.21-37.96-18.96c-15.72,5.25-24.2,22.24-18.96,37.96
			c11.64,34.89,17.55,71.41,17.55,108.57c0,22.44-2.18,44.87-6.48,66.67c-3.2,16.26,7.38,32.03,23.63,35.23
			c1.96,0.39,3.91,0.57,5.83,0.57c14.04,0,26.58-9.91,29.4-24.2c1.04-5.27,1.97-10.57,2.79-15.89c23.8,18.4,49.54,46.12,53.73,70.37
			c1.43,8.27,1.25,19.43-12.93,32.42c-11.66,10.68-36.95,11.63-71.22,2.68c-10.37-2.71-21.49-6.29-33.31-10.71
			c-0.16-0.06-0.31-0.11-0.47-0.17c-27.06-10.15-57.81-24.72-91.89-43.57c-69.66-38.52-133.29-84.07-155.17-100.15
			c2.99-18.94-0.27-38.23-9.56-55.36c-23.07-42.55-76.46-58.39-119.01-35.32c-3.3,1.79-6.45,3.79-9.45,5.95
			c-26.77-18.04-90.13-59.3-160.65-94.94c-24.26-12.26-47-22.66-68.25-31.23c33.05-46.96,77.15-84.74,129.16-110.32
			c14.87-7.31,20.99-25.29,13.68-40.16c-7.31-14.87-25.29-20.99-40.16-13.68c-36.47,17.94-69.97,41.26-99.56,69.33
			c-23.64,22.43-44.4,47.52-61.93,74.81C107,317.55,60.31,323.45,30.85,352.57c-25.37,25.06-35.12,55.5-28.22,88.02
			c7.55,35.6,33.88,65.41,54.63,84.15c15.86,14.32,34.58,27.56,51.39,36.63c1.11,51.19,11.7,100.86,31.55,147.8
			c20.28,47.95,49.31,91.02,86.29,127.99s80.03,66,127.99,86.29c49.66,21.01,102.4,31.66,156.75,31.66
			c72.15,0,142.95-19.32,204.73-55.86c52.78-31.22,97.86-74.22,131.56-125.27c27.19,8.48,51.28,12.72,72.33,12.72
			c29.33,0,52.81-8.21,70.68-24.59C1016.83,738.02,1027.73,707.97,1022.06,675.21z M497.98,528c4.2-2.28,8.73-3.35,13.2-3.35
			c9.87,0,19.44,5.27,24.47,14.53c3.54,6.52,4.32,14.03,2.21,21.15s-6.87,12.98-13.39,16.52h0c-6.52,3.54-14.03,4.32-21.15,2.21
			c-7.11-2.11-12.98-6.87-16.52-13.39c-3.54-6.52-4.32-14.03-2.21-21.15S491.46,531.53,497.98,528z M685.41,847.6
			c-52.54,31.08-112.77,47.5-174.19,47.5c-91.53,0-177.59-35.65-242.31-100.37S168.54,643.95,168.54,552.42
			c0-21.56,2.01-43.14,5.98-64.13c3.08-16.28-7.62-31.97-23.9-35.05c-16.28-3.08-31.97,7.62-35.05,23.9
			c-0.99,5.24-1.86,10.52-2.64,15.82c-23.09-17.43-46.84-42.29-51.61-64.81c-1.74-8.21-1.99-19.37,11.7-32.89
			c11.25-11.11,36.48-13.02,71.06-5.37c10.04,2.22,20.82,5.23,32.25,8.98c0.2,0.07,0.41,0.13,0.61,0.2
			c27.73,9.13,59.45,22.67,94.77,40.49c66.9,33.76,128.68,73.95,154.45,91.26c-5.47,21.46-2.72,43.86,7.9,63.44
			c11.18,20.61,29.71,35.64,52.19,42.31c8.27,2.45,16.7,3.67,25.09,3.67c14.42,0,28.7-3.59,41.72-10.66
			c5.62-3.05,10.81-6.66,15.55-10.74c27.14,19.74,87.54,62.15,154.94,99.46c23.55,13.04,45.67,24.2,66.4,33.5
			C762.21,790.51,726.56,823.26,685.41,847.6z"/>
		<path class="st0" d="M451.99,687.82c-15.18-6.64-32.87,0.29-39.51,15.47l-30.02,68.64c-6.64,15.18,0.29,32.87,15.47,39.51
			c3.91,1.71,7.99,2.52,12,2.52c11.56,0,22.57-6.72,27.5-17.99l30.02-68.64C474.09,712.15,467.17,694.46,451.99,687.82z"/>
	</g>
</g>
</svg>
