<?xml version="1.0" encoding="UTF-8"?>
<svg id="Layer_1" xmlns="http://www.w3.org/2000/svg" version="1.1" viewBox="0 0 1024 1024">
  <defs>
    <style>
      .st0 {
        fill: #e42627;
      }
    </style>
  </defs>
  <path class="st0" d="M330.1,1023.5c-5.2,0-10.4-1.3-15-4l-235.1-135.8c-9.3-5.4-15-15.3-15-26V271.2c0-10.7,5.7-20.6,15-26L497,4.5c9.3-5.4,20.7-5.4,30,0l417,240.8c9.3,5.4,15,15.3,15,26v481.5c0,10.7-5.7,20.6-15,26l-417,240.8c-9.3,5.4-20.7,5.4-30,0l-136.9-79v53c0,10.7-5.7,20.6-15,26-4.6,2.7-9.8,4-15,4ZM360.1,871.2l151.9,87.7,387-223.4v-446.9l-387-223.4L125,288.6v551.9l175.1,101.1v-52.5c0-.4,0-.7,0-1.1v-270.4c0-.4,0-.7,0-1.1v-209.4c0-10.7,5.7-20.6,15-26l181.9-105c9.3-5.4,20.7-5.4,30,0l181.9,105c9.3,5.4,15,15.3,15,26v210c0,10.7-5.7,20.6-15,26l-181.9,105c-9.3,5.4-20.7,5.4-30,0l-136.9-79v202.2ZM360.1,599.7l151.9,87.7,151.9-87.7v-175.4l-151.9-87.7-151.9,87.7v175.4Z"/>
</svg>
