<?xml version="1.0" encoding="UTF-8"?>
<svg id="Layer_1" data-name="Layer 1" xmlns="http://www.w3.org/2000/svg" viewBox="0 0 1024 1024">
  <path d="M1023.53,506.67c-.68-67.83-14.73-134.04-41.75-196.81-.22-.61-.45-1.22-.71-1.82-.26-.6-.55-1.19-.84-1.76-27.48-62.57-66.32-118-115.46-164.75-47.91-45.58-103.53-81.04-165.32-105.37C637.65,11.81,572.8-.18,506.67.47c-68.48.69-135.3,14.99-198.6,42.52,0,0-.02,0-.03.01,0,0-.02,0-.03.01,0,0-.01,0-.02,0-63.27,27.52-119.28,66.63-166.46,116.22-45.58,47.91-81.04,103.53-105.37,165.32C11.81,386.35-.2,451.21.47,517.33c.69,68.48,14.99,135.3,42.52,198.6,27.53,63.3,66.64,119.34,116.25,166.54,47.91,45.58,103.53,81.03,165.32,105.37,60.18,23.71,123.26,35.71,187.6,35.71,1.72,0,3.46,0,5.18-.03,68.46-.69,135.26-14.98,198.55-42.49,0,0,0,0,0,0h0s.04-.02.05-.02c63.3-27.53,119.34-66.64,166.54-116.25,45.58-47.91,81.03-103.53,105.37-165.32,24.34-61.79,36.35-126.65,35.68-192.77ZM577.29,537.72c-10.48,26.59-16.63,54.16-18.5,81.89-21.56-17.53-45.91-31.84-72.51-42.31-26.59-10.48-54.16-16.63-81.89-18.5,17.53-21.56,31.84-45.91,42.31-72.51,10.48-26.59,16.63-54.16,18.5-81.89,21.56,17.53,45.91,31.84,72.51,42.31,26.59,10.48,54.16,16.64,81.88,18.52-17.53,21.55-31.83,45.91-42.3,72.5ZM722.43,387.43c-107.36,46.68-232.68-2.68-279.36-110.04l-81.79-188.1c109.96-23.95,251.93,66.28,349.54,226.85,13.41,22.05,32.15,40.12,54.31,52.72l-42.7,18.57ZM233.11,523.85c-50.87-180.93-20.02-346.32,72.53-410.39l81.79,188.11c46.68,107.36-2.68,232.68-110.04,279.36l-42.76,18.59c5.89-24.8,5.46-50.83-1.52-75.67ZM301.57,636.57c52.01-22.61,109.71-23.62,162.47-2.84,52.76,20.79,94.28,60.87,116.89,112.88l81.79,188.11c-109.97,23.99-251.97-66.24-349.6-226.84-13.41-22.05-32.15-40.12-54.31-52.72l42.76-18.59ZM790.84,500.17c50.86,180.9,20.03,346.26-72.48,410.35l-81.79-188.09c-46.68-107.36,2.68-232.68,110.05-279.36l42.7-18.57c-5.89,24.8-5.46,50.83,1.52,75.67ZM822.95,185.47c36.4,34.63,66.39,74.69,89.42,119.37l-35.91,15.62c-41.5,18.04-90.43,2.64-113.81-35.82-57.83-95.13-133.44-172-212.91-216.45-3.93-2.2-7.87-4.29-11.8-6.33,47.65,2.75,94.37,13.05,139.26,30.73,54.49,21.46,103.52,52.71,145.74,92.88ZM92.59,346.79c17.66-44.84,41.97-85.98,72.42-122.68-1.18,4.23-2.33,8.5-3.39,12.84-21.69,88.43-17.03,196.15,13.1,303.33,12.18,43.33-9.92,89.61-51.41,107.66l-35.87,15.6c-16.97-47.31-25.81-96.56-26.31-146.81-.58-58.27,10-115.45,31.47-169.94ZM201.05,838.53c-36.4-34.63-66.39-74.69-89.42-119.37l35.85-15.59c41.5-18.04,90.43-2.64,113.81,35.82,57.83,95.13,133.45,172,212.91,216.45,3.9,2.18,7.81,4.26,11.71,6.28-47.6-2.77-94.28-13.05-139.12-30.71-54.49-21.46-103.52-52.71-145.74-92.88ZM931.41,677.21c-17.68,44.88-42.01,86.05-72.49,122.77,1.19-4.25,2.34-8.54,3.41-12.9,21.69-88.43,17.03-196.15-13.1-303.33-12.18-43.34,9.92-89.62,51.42-107.67l35.91-15.62c16.97,47.31,25.81,96.56,26.31,146.81.58,58.28-10,115.45-31.47,169.94Z" fill="#226db4"/>
</svg>
