<?xml version="1.0" encoding="utf-8"?>
<svg version="1.1" id="Layer_1" xmlns="http://www.w3.org/2000/svg" xmlns:xlink="http://www.w3.org/1999/xlink" x="0px" y="0px"
	 viewBox="0 0 1024 1024" style="enable-background:new 0 0 1024 1024;" xml:space="preserve">
<style type="text/css">
	.st0{fill:#089949;}
	.st1{fill:#226DB4;}
</style>
<path class="st0" d="M512,532c-7,0-13.9-1.8-20-5.3l0,0L101,300.9c-19.1-11-25.7-35.5-14.7-54.6c3.5-6.1,8.6-11.1,14.7-14.7L492,5.9
	c12.4-7.1,27.6-7.1,40,0l391,225.7c19.1,11,25.7,35.5,14.7,54.6c-3.5,6.1-8.6,11.1-14.7,14.7L532,526.6C525.9,530.1,519,532,512,532
	z M522,474.7L522,474.7z M161,266.2l351,202.6l351-202.6L512,63.6L161,266.2z"/>
<path class="st1" d="M582.2,1023.5c-22.1,0-40-17.9-40-40V613.2c0-14.3,7.6-27.5,20-34.6l320.6-185.1c19.1-11,43.6-4.5,54.6,14.6
	c3.5,6.1,5.4,13,5.4,20v198.1c0,14.3-7.6,27.5-20,34.6l-129.1,74.5v149c0,14.3-7.6,27.5-20,34.6l-171.6,99.1
	C596.1,1021.6,589.2,1023.5,582.2,1023.5z M602.2,624.8v324.1l131.6-76v-149c0-14.3,7.6-27.5,20-34.6l0,0l129.1-74.5V462.8
	L602.2,624.8z"/>
<path class="st1" d="M441.8,1023.5c-7,0-13.9-1.8-20-5.3l-171.6-99c-12.4-7.2-20-20.4-20-34.6V735.4l-129.1-74.5
	c-12.4-7.2-20-20.4-20-34.6V428.1c0-22.1,17.9-40,40-40c7,0,13.9,1.8,20,5.4l320.6,185.1c12.4,7.2,20,20.4,20,34.6v370.2
	C481.8,1005.6,463.9,1023.5,441.8,1023.5L441.8,1023.5z M290.3,872.9l131.5,76V624.8l-280.6-162v151.9l129.1,74.5
	c12.4,7.2,20,20.4,20,34.6V872.9z M240.3,741.2L240.3,741.2z"/>
</svg>
