<?xml version="1.0" encoding="UTF-8"?>
<svg id="Layer_1" data-name="Layer 1" xmlns="http://www.w3.org/2000/svg" viewBox="0 0 760 296">
  <defs><style>.cls-1{fill:#fff;}</style></defs>
  <g>
    <g>
      <path class="cls-1" d="M384.51,142.11h28.17l33.12,83.73,32.88-83.73h27.54v114.88h-20.56v-87.58l-36.18,87.58h-9.89l-35-87.58v87.58h-20.09v-114.88Z"/>
      <path class="cls-1" d="M631.23,225.37c-.73,2.2-1.58,4.28-2.55,6.24-.97,1.96-2.05,3.82-3.26,5.57-1.2,1.75-2.51,3.41-3.92,4.98-1.41,1.57-2.92,3.01-4.51,4.32-1.6,1.31-3.28,2.53-5.06,3.65-1.78,1.13-3.61,2.13-5.49,3.02-1.88.89-3.84,1.67-5.89,2.35-2.04.68-4.11,1.24-6.2,1.69-2.09.44-4.24.78-6.43,1.02-2.2.24-4.39.35-6.59.35-3.71,0-7.26-.24-10.63-.71s-6.57-1.15-9.57-2.04c-3.01-.89-5.85-1.99-8.51-3.3s-5.17-2.81-7.49-4.51c-2.33-1.7-4.46-3.6-6.4-5.69-1.94-2.09-3.69-4.34-5.26-6.75-1.57-2.41-2.96-5-4.16-7.77-1.2-2.77-2.2-5.69-2.98-8.75-.78-3.06-1.39-6.26-1.8-9.61-.42-3.35-.63-6.83-.63-10.44,0-3.3.22-6.51.67-9.65.44-3.14,1.1-6.17,1.96-9.1.86-2.93,1.93-5.74,3.22-8.44,1.28-2.69,2.75-5.24,4.39-7.65,1.65-2.41,3.47-4.67,5.45-6.79,1.99-2.12,4.15-4.05,6.47-5.81s4.8-3.32,7.42-4.71c2.62-1.39,5.38-2.55,8.28-3.49,2.9-.94,5.94-1.66,9.1-2.16,3.16-.5,6.45-.75,9.85-.75,2.2,0,4.34.11,6.43.31,2.09.21,4.16.52,6.2.94,2.04.42,4.03.94,5.96,1.57,1.93.63,3.82,1.35,5.65,2.16,1.83.81,3.61,1.74,5.34,2.79,1.73,1.05,3.38,2.19,4.94,3.41,1.57,1.23,3.06,2.58,4.47,4.04,1.41,1.47,2.75,3.02,4,4.67,1.26,1.65,2.41,3.4,3.45,5.26,1.05,1.86,2.01,3.81,2.9,5.85l-18.36,7.77c-.47-1.26-1.02-2.47-1.65-3.65-.63-1.18-1.31-2.31-2.04-3.41-.73-1.1-1.52-2.14-2.35-3.14-.84-.99-1.73-1.92-2.67-2.79-.94-.86-1.94-1.67-2.98-2.43-1.05-.76-2.12-1.45-3.22-2.08-1.1-.63-2.25-1.19-3.45-1.69-1.2-.5-2.45-.9-3.73-1.22-1.28-.31-2.59-.56-3.92-.75-1.33-.18-2.68-.27-4.04-.27-2.41,0-4.7.2-6.87.59-2.17.39-4.19.97-6.04,1.73-1.86.76-3.6,1.67-5.22,2.75-1.62,1.07-3.11,2.28-4.47,3.61s-2.59,2.79-3.69,4.36-2.09,3.24-2.98,5.02c-.89,1.78-1.65,3.62-2.28,5.53-.63,1.91-1.15,3.87-1.57,5.88-.42,2.01-.73,4.08-.94,6.2-.21,2.12-.31,4.23-.31,6.32,0,2.2.1,4.37.31,6.51.21,2.15.55,4.23,1.02,6.24.47,2.01,1.03,3.96,1.69,5.85.65,1.88,1.44,3.68,2.35,5.38.92,1.7,1.95,3.29,3.1,4.79,1.15,1.49,2.42,2.88,3.81,4.16,1.38,1.28,2.9,2.42,4.55,3.41,1.65,1,3.41,1.83,5.3,2.51,1.88.68,3.88,1.2,6,1.57,2.12.37,4.38.55,6.79.55,1.52,0,2.99-.09,4.43-.27,1.44-.18,2.83-.44,4.16-.78,1.33-.34,2.63-.77,3.88-1.29,1.25-.52,2.46-1.11,3.61-1.77,1.15-.65,2.25-1.39,3.3-2.2,1.05-.81,2.05-1.69,3.02-2.63.97-.94,1.87-1.93,2.71-2.98.84-1.05,1.63-2.16,2.39-3.33.76-1.18,1.45-2.42,2.08-3.73.63-1.31,1.2-2.64,1.73-4l17.73,7.61Z"/>
      <path class="cls-1" d="M646.92,142.11h39.94c2.41,0,4.76.11,7.06.31,2.3.21,4.54.52,6.71.94,2.17.42,4.24.94,6.2,1.57,1.96.63,3.83,1.39,5.61,2.28,1.78.89,3.45,1.91,5.02,3.06,1.57,1.15,2.99,2.43,4.28,3.84,1.28,1.41,2.43,2.97,3.45,4.67,1.02,1.7,1.88,3.56,2.59,5.57.71,2.01,1.24,4.17,1.61,6.47.37,2.3.55,4.79.55,7.46,0,2.93-.22,5.62-.67,8.08-.45,2.46-1.09,4.72-1.92,6.79-.84,2.07-1.86,3.94-3.06,5.61-1.2,1.67-2.55,3.19-4.04,4.55-1.49,1.36-3.11,2.55-4.87,3.57-1.75,1.02-3.62,1.92-5.61,2.71-1.99.79-4.08,1.44-6.28,1.96-2.2.52-4.45.94-6.75,1.26-2.3.31-4.66.54-7.06.67-2.41.13-4.84.2-7.3.2h-13.18v43.32h-22.29v-114.88ZM686.71,197.67c1.73,0,3.35-.09,4.87-.27,1.52-.18,2.94-.46,4.28-.82,1.33-.37,2.56-.84,3.69-1.41,1.12-.58,2.14-1.26,3.06-2.04.92-.79,1.73-1.69,2.43-2.71.71-1.02,1.29-2.14,1.77-3.37.47-1.23.82-2.59,1.06-4.08.24-1.49.35-3.1.35-4.83,0-1.46-.08-2.81-.24-4.04s-.41-2.39-.75-3.49c-.34-1.1-.75-2.09-1.22-2.98-.47-.89-1.01-1.71-1.61-2.47-.6-.76-1.28-1.42-2.04-2-.76-.58-1.58-1.1-2.47-1.57-.89-.47-1.83-.86-2.83-1.18-.99-.31-2.04-.58-3.14-.79-1.1-.21-2.25-.37-3.45-.47-1.2-.1-2.46-.16-3.77-.16h-17.5v38.69h17.5Z"/>
    </g>
    <g>
      <path class="cls-1" d="M384.67,105.74l36.97-53.42h-33.23v-10.54h50.63v5.25l-36.07,53.42h35.03v10.54h-53.32v-5.25Z"/>
      <path class="cls-1" d="M442.39,85.79c0-1.58.12-3.1.38-4.58.25-1.48.62-2.9,1.11-4.25.49-1.35,1.07-2.65,1.75-3.88.68-1.23,1.46-2.39,2.34-3.47.88-1.09,1.84-2.1,2.88-3.03s2.14-1.78,3.31-2.55,2.4-1.45,3.71-2.03c1.31-.58,2.65-1.08,4.04-1.49,1.39-.41,2.82-.72,4.3-.92,1.48-.21,2.98-.31,4.49-.31s3.04.1,4.49.31c1.45.21,2.86.51,4.23.92,1.37.41,2.68.92,3.92,1.51s2.43,1.28,3.55,2.06c1.12.77,2.17,1.62,3.14,2.53.98.91,1.88,1.91,2.69,3,.82,1.09,1.54,2.24,2.17,3.45.63,1.21,1.17,2.49,1.61,3.83.44,1.34.78,2.73,1.02,4.18.24,1.45.36,2.95.36,4.49s-.12,3.14-.36,4.61c-.24,1.46-.58,2.88-1.04,4.23-.46,1.36-1.03,2.65-1.7,3.88-.68,1.23-1.43,2.38-2.27,3.45-.83,1.07-1.76,2.07-2.76,3-1.01.93-2.09,1.77-3.24,2.53-1.15.76-2.36,1.43-3.62,2.01-1.26.58-2.58,1.07-3.97,1.47s-2.81.69-4.28.9c-1.47.21-2.96.31-4.47.31s-3.05-.1-4.51-.31c-1.46-.21-2.89-.51-4.28-.92s-2.72-.91-3.99-1.49-2.49-1.26-3.64-2.03c-1.15-.77-2.23-1.61-3.24-2.53-1.01-.91-1.94-1.91-2.79-2.98s-1.61-2.21-2.27-3.43c-.66-1.21-1.22-2.48-1.68-3.8-.46-1.32-.8-2.71-1.04-4.16-.24-1.45-.35-2.95-.35-4.49ZM470.52,102.62c1.01,0,1.96-.08,2.86-.24.9-.16,1.74-.39,2.53-.69.79-.3,1.51-.66,2.17-1.09.66-.43,1.28-.9,1.84-1.42.57-.52,1.09-1.09,1.56-1.72s.89-1.3,1.25-2.01.68-1.46.95-2.25c.27-.79.5-1.59.69-2.41.19-.82.32-1.66.4-2.53.08-.87.12-1.74.12-2.62,0-.95-.05-1.86-.14-2.74-.09-.88-.24-1.75-.42-2.6-.19-.85-.43-1.67-.71-2.46-.28-.79-.62-1.54-1.02-2.25-.39-.71-.84-1.37-1.32-1.99-.49-.61-1.02-1.18-1.61-1.7-.58-.52-1.21-.98-1.89-1.39-.68-.41-1.41-.76-2.2-1.04-.79-.28-1.63-.5-2.53-.66-.9-.16-1.84-.24-2.81-.24s-1.96.08-2.86.24c-.9.16-1.74.39-2.53.69-.79.3-1.52.66-2.2,1.09-.68.43-1.29.91-1.84,1.44s-1.06,1.13-1.54,1.77c-.47.65-.88,1.33-1.23,2.06-.35.72-.66,1.48-.92,2.27-.27.79-.49,1.62-.66,2.48-.17.87-.3,1.75-.38,2.65-.08.9-.12,1.8-.12,2.72s.05,1.76.14,2.65c.09.88.24,1.73.43,2.55.19.82.43,1.61.73,2.36.3.76.64,1.48,1.02,2.17.38.69.81,1.35,1.3,1.96.49.62,1.02,1.17,1.61,1.68.58.5,1.21.96,1.89,1.37.68.41,1.4.76,2.17,1.04.77.28,1.6.5,2.48.64.88.14,1.81.21,2.79.21Z"/>
      <path class="cls-1" d="M506.73,37.43h12.1v30.96c.31-.63.67-1.22,1.06-1.77.39-.55.82-1.08,1.28-1.58.46-.5.94-.97,1.44-1.39.5-.43,1.03-.82,1.58-1.18.55-.36,1.12-.69,1.7-.99.58-.3,1.19-.57,1.82-.8.63-.24,1.27-.44,1.92-.61.65-.17,1.31-.32,1.99-.43.68-.11,1.36-.2,2.06-.26s1.39-.09,2.08-.09c1.2,0,2.35.09,3.45.26,1.1.17,2.13.42,3.1.73.96.32,1.87.7,2.72,1.16.85.46,1.64.99,2.36,1.58s1.39,1.25,1.99,1.96c.6.71,1.14,1.47,1.63,2.29.49.82.91,1.69,1.28,2.62.36.93.66,1.9.9,2.91.24,1.01.42,2.06.54,3.14.13,1.09.19,2.21.19,3.38v31.67h-12.2v-30.49c0-.72-.04-1.42-.12-2.08-.08-.66-.19-1.29-.33-1.89-.14-.6-.32-1.16-.54-1.68-.22-.52-.48-1.01-.78-1.47-.3-.46-.63-.87-.99-1.25-.36-.38-.76-.72-1.21-1.02s-.91-.57-1.42-.8-1.04-.43-1.61-.59c-.57-.16-1.17-.28-1.82-.35-.65-.08-1.32-.12-2.01-.12-.79,0-1.53.05-2.22.14s-1.36.23-2.01.4c-.65.17-1.25.39-1.8.66-.55.27-1.07.58-1.56.92-.49.35-.94.73-1.35,1.16-.41.43-.78.88-1.11,1.37-.33.49-.62,1.01-.87,1.56-.25.55-.47,1.13-.64,1.75-.17.62-.3,1.26-.38,1.94-.08.68-.12,1.38-.12,2.1v29.73h-12.1V37.43Z"/>
      <path class="cls-1" d="M561.75,85.79c0-1.58.12-3.1.38-4.58.25-1.48.62-2.9,1.11-4.25.49-1.35,1.07-2.65,1.75-3.88.68-1.23,1.46-2.39,2.34-3.47.88-1.09,1.84-2.1,2.88-3.03s2.14-1.78,3.31-2.55,2.4-1.45,3.71-2.03c1.31-.58,2.65-1.08,4.04-1.49,1.39-.41,2.82-.72,4.3-.92,1.48-.21,2.98-.31,4.49-.31s3.04.1,4.49.31c1.45.21,2.86.51,4.23.92,1.37.41,2.68.92,3.92,1.51s2.43,1.28,3.55,2.06c1.12.77,2.17,1.62,3.14,2.53.98.91,1.88,1.91,2.69,3,.82,1.09,1.54,2.24,2.17,3.45.63,1.21,1.17,2.49,1.61,3.83.44,1.34.78,2.73,1.02,4.18.24,1.45.36,2.95.36,4.49s-.12,3.14-.36,4.61c-.24,1.46-.58,2.88-1.04,4.23-.46,1.36-1.03,2.65-1.7,3.88-.68,1.23-1.43,2.38-2.27,3.45-.83,1.07-1.76,2.07-2.76,3-1.01.93-2.09,1.77-3.24,2.53-1.15.76-2.36,1.43-3.62,2.01-1.26.58-2.58,1.07-3.97,1.47s-2.81.69-4.28.9c-1.47.21-2.96.31-4.47.31s-3.05-.1-4.51-.31c-1.46-.21-2.89-.51-4.28-.92s-2.72-.91-3.99-1.49-2.49-1.26-3.64-2.03c-1.15-.77-2.23-1.61-3.24-2.53-1.01-.91-1.94-1.91-2.79-2.98s-1.61-2.21-2.27-3.43c-.66-1.21-1.22-2.48-1.68-3.8-.46-1.32-.8-2.71-1.04-4.16-.24-1.45-.35-2.95-.35-4.49ZM589.88,102.62c1.01,0,1.96-.08,2.86-.24.9-.16,1.74-.39,2.53-.69.79-.3,1.51-.66,2.17-1.09.66-.43,1.28-.9,1.84-1.42.57-.52,1.09-1.09,1.56-1.72s.89-1.3,1.25-2.01.68-1.46.95-2.25c.27-.79.5-1.59.69-2.41.19-.82.32-1.66.4-2.53.08-.87.12-1.74.12-2.62,0-.95-.05-1.86-.14-2.74-.09-.88-.24-1.75-.42-2.6-.19-.85-.43-1.67-.71-2.46-.28-.79-.62-1.54-1.02-2.25-.39-.71-.84-1.37-1.32-1.99-.49-.61-1.02-1.18-1.61-1.7-.58-.52-1.21-.98-1.89-1.39-.68-.41-1.41-.76-2.2-1.04-.79-.28-1.63-.5-2.53-.66-.9-.16-1.84-.24-2.81-.24s-1.96.08-2.86.24c-.9.16-1.74.39-2.53.69-.79.3-1.52.66-2.2,1.09-.68.43-1.29.91-1.84,1.44s-1.06,1.13-1.54,1.77c-.47.65-.88,1.33-1.23,2.06-.35.72-.66,1.48-.92,2.27-.27.79-.49,1.62-.66,2.48-.17.87-.3,1.75-.38,2.65-.08.9-.12,1.8-.12,2.72s.05,1.76.14,2.65c.09.88.24,1.73.43,2.55.19.82.43,1.61.73,2.36.3.76.64,1.48,1.02,2.17.38.69.81,1.35,1.3,1.96.49.62,1.02,1.17,1.61,1.68.58.5,1.21.96,1.89,1.37.68.41,1.4.76,2.17,1.04.77.28,1.6.5,2.48.64.88.14,1.81.21,2.79.21Z"/>
    </g>
  </g>
  <g>
    <path class="cls-1" d="M312.76,170.54l-60.86-90.29c-7.96-11.81-21.21-18.86-35.45-18.86h-.01c-14.23,0-27.48,7.04-35.45,18.84l-80.15,118.72c-2.63,3.89-1.6,9.17,2.29,11.8,3.89,2.63,9.17,1.6,11.8-2.29l80.15-118.72c4.87-7.22,12.66-11.35,21.36-11.35h0c8.71,0,16.5,4.15,21.36,11.37l60.86,90.29c7.94,11.78,4.82,27.83-6.98,35.79-5.71,3.85-12.57,5.25-19.33,3.93s-12.6-5.18-16.45-10.89l-32.41-48.05c-.18-.12-.36-.23-.55-.33-.06-.04-.13-.08-.19-.11-.15-.08-.31-.15-.47-.22-.1-.05-.21-.1-.31-.14-.08-.03-.17-.06-.26-.09-.96-.35-1.95-.54-2.94-.54-.99,0-1.99.18-2.95.54-.08.03-.17.06-.25.09-.11.04-.21.1-.31.15-.15.07-.31.14-.46.22-.07.04-.13.08-.2.12-.18.1-.37.21-.54.33-.17.12-.33.24-.49.37-.09.07-.17.15-.26.23-.12.11-.24.21-.35.33-.12.11-.22.24-.33.36-.08.08-.15.17-.23.25-.13.16-.25.33-.37.49l-32.41,48.05c-3.85,5.71-9.69,9.58-16.45,10.89s-13.62-.08-19.33-3.93l-.25-.17c-3.89-2.62-9.17-1.6-11.8,2.29-2.62,3.89-1.6,9.17,2.29,11.8l.25.17c7.15,4.82,15.39,7.32,23.83,7.32,2.74,0,5.5-.26,8.25-.8,11.21-2.18,20.91-8.6,27.3-18.07l25.45-37.73,25.45,37.73c6.39,9.47,16.08,15.89,27.3,18.07,2.75.53,5.51.8,8.25.8,8.44,0,16.68-2.51,23.85-7.34,19.55-13.18,24.73-39.82,11.55-59.37Z"/>
    <path class="cls-1" d="M81.26,218.79c-7.75,2.68-16.08,1.59-22.86-2.99-11.79-7.95-14.91-24.01-6.96-35.8l60.87-90.24c3.85-5.71,9.7-9.58,16.46-10.89,6.76-1.31,13.63.08,19.34,3.93.18.12.37.25.54.38,3.82,2.72,9.13,1.83,11.85-2,2.72-3.82,1.83-9.13-2-11.85-.29-.21-.59-.42-.89-.62-9.47-6.39-20.87-8.71-32.08-6.53-11.22,2.18-20.91,8.6-27.3,18.07l-60.87,90.25c-13.19,19.56-8.01,46.2,11.54,59.39,5.59,3.77,12.06,6.19,18.71,7,1.7.21,3.42.31,5.14.31,4.77,0,9.55-.79,14.06-2.35,4.44-1.53,6.79-6.37,5.26-10.81-1.53-4.44-6.37-6.79-10.81-5.26Z"/>
  </g>
</svg>
